<svg xmlns="http://www.w3.org/2000/svg" xmlns:xlink="http://www.w3.org/1999/xlink" width="0" height="0" style="position:absolute">
	
		<symbol id="bar-graph" viewBox="0 0 24 24">
			<path d="M20.7 0c-1.8 0-3.3 1.5-3.3 3.3v17.5c0 1.8 1.5 3.3 3.3 3.3s3.3-1.5 3.3-3.3V3.3C24 1.5 22.5 0 20.7 0zm1.1 20.7c0 .6-.5 1.1-1.1 1.1-.6 0-1.1-.5-1.1-1.1V3.3c0-.6.5-1.1 1.1-1.1.6 0 1.1.5 1.1 1.1v17.4zM12 6.5c-1.8 0-3.3 1.5-3.3 3.3v10.9c0 1.8 1.5 3.3 3.3 3.3s3.3-1.5 3.3-3.3V9.8c0-1.8-1.5-3.3-3.3-3.3zm1.1 14.2c0 .6-.5 1.1-1.1 1.1s-1.1-.5-1.1-1.1V9.8c0-.6.5-1.1 1.1-1.1s1.1.5 1.1 1.1v10.9zM3.3 13.1c-1.8 0-3.3 1.5-3.3 3.3v4.4C0 22.5 1.5 24 3.3 24s3.3-1.5 3.3-3.3v-4.4c-.1-1.7-1.5-3.2-3.3-3.2zm1.1 7.6c0 .6-.5 1.1-1.1 1.1s-1.1-.5-1.1-1.1v-4.4c0-.6.5-1.1 1.1-1.1s1.1.5 1.1 1.1v4.4z"></path>
		</symbol>
	
		<symbol id="bookmark" viewBox="0 0 24 24">
			<path d="M20.4 24c-.2 0-.5-.1-.7-.2L12 18.3l-7.7 5.5c-.4.3-.8.3-1.2.1-.4-.2-.7-.6-.7-1.1V3.6C2.4 1.6 4 0 6 0h12c2 0 3.6 1.6 3.6 3.6v19.2c0 .4-.3.9-.7 1.1-.1.1-.3.1-.5.1zM12 15.6c.2 0 .5.1.7.2l6.5 4.6V3.6c0-.7-.5-1.2-1.2-1.2H6c-.7 0-1.2.5-1.2 1.2v16.9l6.5-4.6c.2-.2.5-.3.7-.3z"></path>
		</symbol>
	
		<symbol id="cart" viewBox="0 0 20.8 19">
			<path d="M5.3 2l-.5-2H1C.4 0 0 .4 0 1s.4 1 1 1h2.2l3.2 13h13.3v-2H8l-.3-1.3 13.1-2.5V2H5.3zm13.5 5.5L7.2 9.7 5.8 4h13v3.5zM6.8 16c-.8 0-1.5.7-1.5 1.5S5.9 19 6.8 19s1.5-.7 1.5-1.5S7.6 16 6.8 16zm12 0c-.8 0-1.5.7-1.5 1.5S18 19 18.8 19s1.5-.7 1.5-1.5-.7-1.5-1.5-1.5z"></path>
		</symbol>
	
		<symbol id="compass" viewBox="0 0 24 24">
			<path d="M12 24C5.4 24 0 18.6 0 12S5.4 0 12 0s12 5.4 12 12-5.4 12-12 12zm0-21.8c-5.4 0-9.8 4.4-9.8 9.8s4.4 9.8 9.8 9.8 9.8-4.4 9.8-9.8-4.4-9.8-9.8-9.8z"></path><path d="M7.4 17.7c-.3 0-.6-.1-.8-.3-.3-.3-.4-.7-.3-1.1l2.3-6.9c.2-.4.4-.6.7-.7l6.9-2.3c.4-.1.8 0 1.1.3.3.3.4.7.3 1.1l-2.3 6.9c-.1.3-.4.6-.7.7l-6.9 2.3h-.3zm3.1-7.2L9 14.9l4.4-1.5L14.9 9l-4.4 1.5z"></path>
		</symbol>
	
		<symbol id="eye" viewBox="0 0 26 18">
			<path d="M13 18c-2.8 0-5.5-1.1-7.5-3.1L.3 9.7c-.4-.4-.4-1 0-1.4l5.2-5.2c4.1-4.1 10.9-4.1 15 0l5.2 5.2c.4.4.4 1 0 1.4l-5.2 5.2c-2 2-4.7 3.1-7.5 3.1zM2.4 9l4.5 4.5c3.4 3.4 8.9 3.4 12.2 0L23.6 9l-4.5-4.5c-3.4-3.4-8.9-3.4-12.2 0L2.4 9z"></path><path d="M13 13c-2.2 0-4-1.8-4-4s1.8-4 4-4 4 1.8 4 4-1.8 4-4 4zm0-6c-1.1 0-2 .9-2 2s.9 2 2 2 2-.9 2-2-.9-2-2-2z"></path>
		</symbol>
	
		<symbol id="eye-password" viewBox="0 0 24 24">
			<path d="M10.1 5.2c.6-.1 1.3-.2 1.9-.2 5.4 0 8.9 5.4 9.9 7-.5.9-1.1 1.8-1.8 2.5-.4.4-.3 1.1.1 1.4.2.2.4.2.6.2.3 0 .6-.1.8-.4.9-1 1.6-2.2 2.3-3.4.2-.3.2-.6 0-.9C23.7 11.2 19.5 3 12 3c-.8 0-1.6.1-2.3.3-.6.1-.9.6-.8 1.2.2.5.7.8 1.2.7zM23.7 22.3L1.7.3C1.3-.1.7-.1.3.3s-.4 1 0 1.4L4.6 6C2.8 7.6 1.3 9.4.1 11.5c-.2.3-.2.6 0 .9.2.4 4.4 8.6 11.9 8.6 2.1 0 4.1-.6 5.8-1.8l4.5 4.5c.2.2.5.3.7.3s.5-.1.7-.3c.4-.4.4-1 0-1.4zM10 11.4l2.5 2.5c-.2.1-.4.1-.6.1-.5 0-1-.2-1.4-.5-.5-.5-.7-1.3-.5-2.1zm2 7.6c-5.4 0-8.9-5.4-9.9-7 1-1.8 2.3-3.3 3.9-4.6L8.5 10c-1 1.6-.8 3.7.7 5 .7.7 1.7 1.1 2.7 1.1h.1c.7 0 1.4-.3 2-.6l2.3 2.3C15 18.6 13.5 19 12 19z"></path>
		</symbol>
	
		<symbol id="facebook" viewBox="0 0 50 50">
			<path d="M45 1H5C2.8 1 1 2.8 1 5v40c0 2.2 1.8 4 4 4h40c2.2 0 4-1.8 4-4V5c0-2.2-1.8-4-4-4z"></path><path d="M32 26l1-5h-5v-4c0-1.5.8-2 3-2h2v-5h-4c-4.1 0-7 2.4-7 7v4h-5v5h5v14h6V26h4z"></path>
		</symbol>
	
		<symbol id="favourite" viewBox="0 0 20 18">
			<path d="M14.4 2c2 0 3.6 1.6 3.6 3.6s-3.9 6.4-8 9.8c-4.1-3.5-8-7.9-8-9.8C2 3.6 3.6 2 5.6 2 8 2 10 5 10 5s1.9-3 4.4-3m0-2C12.6 0 11 .9 10 2.3 9 .9 7.4 0 5.6 0 2.5 0 0 2.5 0 5.6 0 10 10 18 10 18s10-8 10-12.4C20 2.5 17.5 0 14.4 0z"></path>
		</symbol>
	
		<symbol id="file-attach" viewBox="0 0 24 24">
			<path d="M9 21.5A7 7 0 0 1 4.05 9.59L9.7 4a5 5 0 0 1 7.06 0 5 5 0 0 1 0 7.05l-5.65 5.63a3 3 0 0 1-4.23 0A3 3 0 0 1 6 14.53a3 3 0 0 1 .87-2.12l5.65-5.63a1 1 0 0 1 1.42 0 1 1 0 0 1 0 1.41l-5.65 5.63a1 1 0 0 0 0 1.41 1 1 0 0 0 1.41 0l5.65-5.64a3 3 0 0 0 0-4.21 3 3 0 0 0-4.24 0L5.46 11a5 5 0 0 0 0 7 5 5 0 0 0 7.06 0l7.77-7.74a1 1 0 0 1 1.42 0 1 1 0 0 1 0 1.41l-7.77 7.75A7 7 0 0 1 9 21.5z"></path>
		</symbol>
	
		<symbol id="flash" viewBox="0 0 19.8 30.8">
			<path d="M7.8 18.4H1c-.2 0-.5-.1-.6-.2-.4-.3-.5-1-.1-1.4L13.7.4c.3-.3.7-.4 1.1-.3.5.2.8.7.7 1.2L12 12.4h6.8c.2 0 .5.1.6.2.4.3.5 1 .1 1.4L6.1 30.5c-.3.3-.7.4-1.1.3-.5-.2-.8-.7-.7-1.2l3.5-11.2z"></path>
		</symbol>
	
		<symbol id="folder-plus" viewBox="0 0 24 24">
			<path d="M20.7 4.4h-9.2L9.6 1.6c-.2-.3-.5-.5-.9-.5H3.3C1.5 1.1 0 2.6 0 4.4v15.3C0 21.5 1.5 23 3.3 23h17.5c1.8 0 3.3-1.5 3.3-3.3v-12c-.1-1.9-1.6-3.3-3.4-3.3zm1.1 15.2c0 .6-.5 1.1-1.1 1.1H3.3c-.6 0-1.1-.5-1.1-1.1V4.4c0-.6.5-1.1 1.1-1.1h4.9L10 6.1c.2.3.5.5.9.5h9.8c.6 0 1.1.5 1.1 1.1v11.9z"></path><path d="M15.3 13.1h-2.2v-2.2c0-.6-.5-1.1-1.1-1.1s-1.1.5-1.1 1.1v2.2H8.7c-.6 0-1.1.5-1.1 1.1 0 .6.5 1.1 1.1 1.1h2.2v2.2c0 .6.5 1.1 1.1 1.1s1.1-.5 1.1-1.1v-2.2h2.2c.6 0 1.1-.5 1.1-1.1 0-.6-.5-1.1-1.1-1.1z"></path>
		</symbol>
	
		<symbol id="gift" viewBox="0 0 24 25">
			<path d="M22 5h-3.7c.5-.3 1-.8 1.4-1.3.6-1 .5-2.3-.4-3.1-.5-.3-1-.6-1.6-.6-1.6-.2-3.2.3-4.5 1.2-.5.4-.9.8-1.2 1.2-.3-.4-.7-.8-1.1-1.1C9.6.3 8-.1 6.4 0c-.6 0-1.1.2-1.6.6-.9.8-1 2.1-.4 3.1.3.5.8 1 1.4 1.3H2c-.5 0-.9.3-1 .8l-1 5c-.1.5.2 1.1.8 1.2H2v12c0 .6.4 1 1 1h18c.6 0 1-.4 1-1V12h1c.6 0 1-.4 1-1v-.2l-1-5c-.1-.5-.5-.8-1-.8zm-.2 5H16V7h5.2l.6 3zM10 7h4v3h-4V7zm4.3-4.1C15.1 2.3 16 2 17 2h.5c.2 0 .4.1.5.1.1.2.1.4 0 .5-.3.4-.7.7-1.1.9-1.2.6-2.4 1.1-3.7 1.3v-.2c.1-.6.5-1.3 1.1-1.7zm-8.2-.7c.1-.1.3-.2.5-.2H7c1 0 1.9.3 2.7.9.6.5 1 1.1 1.3 1.8v.2c-1.4-.3-2.6-.7-3.8-1.3-.4-.2-.8-.5-1.1-.9-.1-.2-.1-.4 0-.5zM2.8 7H8v3H2.2l.6-3zM4 12h5v11H4V12zm7 11V12h2v11h-2zm9 0h-5V12h5v11z"></path>
		</symbol>
	
		<symbol id="globe" viewBox="0 0 24 24">
			<path d="M12 0C5.4 0 0 5.4 0 12s5.4 12 12 12 12-5.4 12-12S18.6 0 12 0zm9.8 10.9h-4.4c-.2-3-1.2-5.9-2.9-8.4 3.8 1 6.8 4.3 7.3 8.4zm-13 2.2h6.4c-.3 3-1.4 5.8-3.2 8.1-1.8-2.3-2.9-5.2-3.2-8.1zm0-2.2c.3-3 1.4-5.8 3.2-8.1 1.8 2.4 2.9 5.2 3.2 8.1H8.8zm.7-8.4C7.9 5 6.9 7.9 6.6 10.9H2.2c.5-4.1 3.5-7.4 7.3-8.4zM2.2 13.1h4.4c.2 3 1.2 5.9 2.9 8.4-3.8-1-6.8-4.3-7.3-8.4zm12.3 8.4c1.7-2.5 2.7-5.4 2.9-8.4h4.4c-.5 4.1-3.5 7.4-7.3 8.4z"></path>
		</symbol>
	
		<symbol id="home" viewBox="0 0 24 24">
			<path d="M22.5 7.9L12.7.3c-.4-.3-.9-.3-1.3 0L1.5 7.9c-.3.2-.4.5-.4.8v12c0 1.8 1.5 3.3 3.3 3.3h15.3c1.8 0 3.3-1.5 3.3-3.3v-12c-.1-.3-.2-.6-.5-.8zm-8.3 13.9H9.8v-8.7h4.4v8.7zm6.5-1.1c0 .6-.5 1.1-1.1 1.1h-3.3V12c0-.6-.5-1.1-1.1-1.1H8.7c-.6 0-1.1.5-1.1 1.1v9.8H4.4c-.6 0-1.1-.5-1.1-1.1V9.3L12 2.5l8.7 6.8v11.4z"></path>
		</symbol>
	
		<symbol id="instagram" viewBox="0 0 50 50">
			<path d="M45 1H5C2.8 1 1 2.8 1 5v40c0 2.2 1.8 4 4 4h40c2.2 0 4-1.8 4-4V5c0-2.2-1.8-4-4-4z"></path><path d="M36 10H13.5c-1.9 0-3.5 1.6-3.5 3.5v23c0 1.9 1.6 3.5 3.5 3.5h23c1.9-.1 3.5-1.6 3.5-3.5v-23c0-1.9-2.1-3.4-4-3.5zm-11 9.5c3 0 5.5 2.5 5.5 5.5S28 30.5 25 30.5 19.5 28 19.5 25s2.5-5.5 5.5-5.5zM36 34c0 1.1-.9 2-2 2H16c-1.1 0-2-.9-2-2V22.5h2.4c-.3.8-.4 1.6-.4 2.5 0 5 4 9 9 9s9-4 9-9c0-.9-.1-1.7-.4-2.5H36V34zm0-19v3c0 .5-.4 1-1 1h-3c-.5 0-1-.4-1-1v-3c0-.6.4-1 1-1h3c.6 0 1 .5 1 1z"></path>
		</symbol>
	
		<symbol id="life-buoy" viewBox="0 0 24 24">
			<path d="M20.5 20.5c2.2-2.2 3.5-5.2 3.5-8.5s-1.3-6.3-3.5-8.5S15.3 0 12 0 5.7 1.3 3.5 3.5 0 8.7 0 12s1.3 6.3 3.5 8.5S8.7 24 12 24s6.3-1.3 8.5-3.5zm-.8-2.4L16.5 15c.6-.9.9-1.9.9-3s-.3-2.1-.9-3l3.1-3.1c1.3 1.7 2.2 3.8 2.2 6.1s-.8 4.4-2.1 6.1zM8.7 12c0-1.8 1.5-3.3 3.3-3.3s3.3 1.5 3.3 3.3-1.5 3.3-3.3 3.3-3.3-1.5-3.3-3.3zm9.4-7.7L15 7.5c-.9-.6-1.9-.9-3-.9s-2.1.3-3 .9L5.9 4.3C7.6 3 9.7 2.2 12 2.2s4.4.8 6.1 2.1zM4.3 5.9L7.5 9c-.6.9-.9 1.9-.9 3s.3 2.1.9 3l-3.1 3.1C3 16.4 2.2 14.3 2.2 12S3 7.6 4.3 5.9zm1.6 13.8L9 16.5c.9.6 1.9.9 3 .9s2.1-.3 3-.9l3.1 3.1c-1.7 1.3-3.8 2.2-6.1 2.2s-4.4-.8-6.1-2.1z"></path>
		</symbol>
	
		<symbol id="like" viewBox="0 0 85 97.9">
			<path d="M70.5 85c-.5 2.9-3 4.9-5.9 4.9H18v8h46.6c6.8 0 12.6-4.9 13.8-11.5l6.4-36c.7-4.1-.4-8.3-3-11.4-2.7-3.2-6.6-5-10.7-5H55.2c1.2-3.7 2.8-9.1 4.1-16.2l.6-4.2C60.8 7 56.2 1 49.7.1c-3.2-.4-6.3.4-8.9 2.3-2.6 1.9-4.2 4.8-4.7 7.9l-.6 4c-.1.5-.2 1-.2 1.5l-.3 1.5C31.9 31.9 20.3 43.7 5.3 47.5L0 48.8v49.1h8V55c17.5-4.7 31.2-18.7 34.9-36 .1-.6.2-1.2.4-1.8l.3-1.8.6-4c.1-1.1.7-2 1.6-2.6.9-.6 1.9-.9 3-.8 2.2.3 3.7 2.3 3.4 4.5l-.5 3.9c-2.1 11.6-5 18.3-5.5 19.6l-.3.8V42h25.5c1.8 0 3.5.8 4.6 2.1 1.1 1.4 1.6 3.2 1.3 4.9l-6.8 36z"></path>
		</symbol>
	
		<symbol id="location-marker" viewBox="0 0 18 21.9">
			<path d="M9 0C4 0 0 4.1 0 9.1c0 2.4 1 4.8 2.6 6.4L9 21.9l6.4-6.4c1.5-1.6 2.6-4 2.6-6.4 0-5-4-9.1-9-9.1zm5 14.1l-5 5-5-5c-1.3-1.4-2-3.3-2-5C2 5.2 5.1 2 9 2s7 3.2 7 7.1c0 1.8-.8 3.7-2 5z"></path><path d="M9 4.9C6.8 4.9 4.9 6.8 4.9 9s1.8 4.1 4.1 4.1 4.1-1.8 4.1-4.1c0-2.2-1.9-4.1-4.1-4.1zm0 6.2c-1.1 0-2.1-.9-2.1-2.1s1-2.1 2.1-2.1 2.1.9 2.1 2.1-1 2.1-2.1 2.1z"></path>
		</symbol>
	
		<symbol id="monitor" viewBox="0 0 24 24">
			<path d="M20.7 1.1H3.3C1.5 1.1 0 2.6 0 4.4v10.9c0 1.8 1.5 3.3 3.3 3.3h7.6v2.2H7.6c-.6 0-1.1.5-1.1 1.1S7 23 7.6 23h8.7c.6 0 1.1-.5 1.1-1.1s-.5-1.1-1.1-1.1H13v-2.2h7.6c1.8 0 3.3-1.5 3.3-3.3V4.4c.1-1.8-1.4-3.3-3.2-3.3zm1.1 14.2c0 .6-.5 1.1-1.1 1.1H3.3c-.6 0-1.1-.5-1.1-1.1V4.4c0-.6.5-1.1 1.1-1.1h17.5c.6 0 1.1.5 1.1 1.1v10.9z"></path>
		</symbol>
	
		<symbol id="percent" viewBox="0 0 19.1 24">
			<path d="M6 12h.2l1.9-2.6c-.6.3-1.3.6-2.1.6-2.2 0-4-1.8-4-4s1.8-4 4-4 4 1.8 4 4c0 .3 0 .6-.1.9l1.9-2.6C11 1.8 8.7 0 6 0 2.7 0 0 2.7 0 6s2.7 6 6 6zm7.6 0l-1.5 2.1c.3-.1.6-.1.9-.1 2.2 0 4 1.8 4 4s-1.8 4-4 4c-2.1 0-3.8-1.6-3.9-3.6l-1.5 2.1c.9 2.1 3 3.5 5.5 3.5 3.3 0 6-2.7 6-6-.1-3.1-2.5-5.7-5.5-6zm3-11.2L1.7 21.7l1.6 1.2L18.3 2 16.6.8z"></path>
		</symbol>
	
		<symbol id="pie-chart" viewBox="0 0 24 24">
			<path d="M12 0C5.4 0 0 5.4 0 12s5.4 12 12 12 12-5.4 12-12S18.6 0 12 0zm9.8 10.9h-8.7V2.2c4.5.5 8.2 4.2 8.7 8.7zM12 21.8c-5.4 0-9.8-4.4-9.8-9.8 0-5.1 3.8-9.2 8.7-9.8V13H21.8c-.6 5-4.7 8.8-9.8 8.8z"></path>
		</symbol>
	
		<symbol id="pin-location" viewBox="0 0 30 30">
			<circle cx="15" cy="5" r="1.5"></circle><path d="M19.095 19.191a.985.985 0 0 0-1.09.9.999.999 0 0 0 .9 1.09C24.84 21.75 28 23.475 28 24.5c0 1.394-5.185 3.5-13 3.5S2 25.894 2 24.5c0-1.026 3.161-2.751 9.095-3.318a.999.999 0 0 0 .9-1.09.983.983 0 0 0-1.09-.9C5.633 19.694 0 21.353 0 24.5 0 28.11 7.546 30 15 30s15-1.89 15-5.5c0-3.146-5.633-4.805-10.905-5.309z"></path><path d="M14 13.92V25a1 1 0 0 0 2 0V13.92a7 7 0 1 0-2 0zM15 3.5A1.5 1.5 0 1 1 13.5 5 1.502 1.502 0 0 1 15 3.5z"></path>
		</symbol>
	
		<symbol id="search" viewBox="0 0 17 17">
			<path d="M17 15.5l-4.4-4.4C13.5 10 14 8.6 14 7c0-3.9-3.1-7-7-7S0 3.1 0 7s3.1 7 7 7c1.6 0 3-.5 4.2-1.4l4.4 4.4 1.4-1.5zM2 7c0-2.8 2.2-5 5-5s5 2.2 5 5-2.2 5-5 5-5-2.2-5-5z"></path>
		</symbol>
	
		<symbol id="select-arrow" viewBox="0 0 7.04 5">
			<path d="M3.52 5L0 0h7z"></path>
		</symbol>
	
		<symbol id="settings" viewBox="0 0 24 24">
			<path d="M12 16c-2.2 0-4-1.8-4-4s1.8-4 4-4 4 1.8 4 4-1.8 4-4 4zm0-6c-1.1 0-2 .9-2 2s.9 2 2 2 2-.9 2-2-.9-2-2-2z"></path><path d="M12.1 24c-1.7 0-3-1.3-3-3 0-.3-.2-.6-.4-.7-.3-.1-.6-.1-.8.1-.6.6-1.4.9-2.2.9-.8 0-1.6-.3-2.1-.9-.6-.6-.9-1.3-.9-2.1s.3-1.5.9-2.1c.2-.2.3-.5.2-.8-.1-.2-.3-.4-.6-.4H3c-1.7 0-3-1.3-3-3s1.3-3 3-3c.3 0 .6-.2.7-.4.1-.3.1-.6-.1-.8-.7-.5-1-1.3-1-2.1s.3-1.6.9-2.1c1.2-1.2 3.1-1.2 4.2 0 .3.2.6.3.8.2.1 0 .1 0 .2-.1.2-.1.3-.3.3-.5V3c0-1.7 1.3-3 3-3s3 1.3 3 3c0 .3.2.6.4.7.3.1.5.1.7-.1.6-.6 1.4-.9 2.2-.9.8 0 1.5.3 2.1.9 1.2 1.2 1.2 3.1 0 4.2-.2.2-.3.5-.2.8 0 .1 0 .1.1.2s.3.2.5.2h.2c1.7 0 3 1.3 3 3s-1.3 3-3 3c-.3 0-.6.2-.7.4-.1.2-.1.5.1.7 1.2 1.2 1.2 3.1.1 4.3-1.2 1.2-3.1 1.2-4.2 0-.2-.2-.5-.3-.8-.2-.2.1-.4.3-.4.6v.2c0 1.7-1.4 3-3 3zm-3.8-5.7c.4 0 .7.1 1.1.2 1 .4 1.7 1.3 1.7 2.4v.1c0 .6.4 1 1 1s1-.4 1-1v-.2c0-1.1.6-2 1.6-2.4 1-.4 2.1-.2 2.9.5l.1.1c.2.2.4.3.7.3.3 0 .5-.1.7-.3.2-.2.3-.4.3-.7 0-.3-.1-.5-.3-.7-.8-.8-1-2-.6-3s1.4-1.6 2.4-1.6c.6 0 1.1-.4 1.1-1s-.4-1-1-1h-.2c-1.1 0-2-.6-2.4-1.6 0-.1-.1-.2-.1-.3-.3-.9-.1-2 .6-2.7.5-.5.5-1.1.1-1.5-.2-.2-.4-.3-.7-.3-.3 0-.5.1-.7.3-.8.8-2 1-3 .6S13 4.1 13 3.1c0-.7-.4-1.1-1-1.1s-1 .4-1 1v.2c0 1.1-.6 2-1.6 2.4-.1 0-.2.1-.3.1-1 .3-2 .1-2.7-.6L6.3 5c-.4-.4-1-.4-1.4 0-.2.2-.3.4-.3.7s.1.5.3.7c.8.8 1 2 .6 3S4.2 11 3.1 11.1H3c-.6 0-1 .4-1 1s.4 1 1 1h.2c1.1 0 2 .6 2.4 1.6.4 1 .2 2.1-.5 2.9-.4.4-.4 1 0 1.4.4.4 1 .4 1.4 0 .5-.5 1.2-.7 1.8-.7zM19.4 15z"></path>
		</symbol>
	
		<symbol id="slider-arrow-right" viewBox="0 0 7 12.1">
			<path d="M1 0L0 1l5.1 5L0 11.1l1 1L7 6z"></path>
		</symbol>
	
		<symbol id="sliders" viewBox="0 0 24 24">
			<path d="M4 11c.6 0 1-.4 1-1V3c0-.6-.4-1-1-1s-1 .4-1 1v7c0 .6.4 1 1 1zM12 11c-.6 0-1 .4-1 1v9c0 .6.4 1 1 1s1-.4 1-1v-9c0-.6-.4-1-1-1zM20 13c.6 0 1-.4 1-1V3c0-.6-.4-1-1-1s-1 .4-1 1v9c0 .6.4 1 1 1zM7 13H1c-.6 0-1 .4-1 1s.4 1 1 1h2v6c0 .6.4 1 1 1s1-.4 1-1v-6h2c.6 0 1-.4 1-1s-.4-1-1-1zM15 7h-2V3c0-.6-.4-1-1-1s-1 .4-1 1v4H9c-.6 0-1 .4-1 1s.4 1 1 1h6c.6 0 1-.4 1-1s-.4-1-1-1zM23 15h-6c-.6 0-1 .4-1 1s.4 1 1 1h2v4c0 .6.4 1 1 1s1-.4 1-1v-4h2c.6 0 1-.4 1-1s-.4-1-1-1z"></path>
		</symbol>
	
		<symbol id="star" viewBox="0 0 20 19">
			<path d="M10 15.3l6.2 3.7-1.6-7L20 7.2l-7.2-.6L10 0 7.2 6.6 0 7.2 5.5 12l-1.6 7 6.1-3.7z"></path>
		</symbol>
	
		<symbol id="star-outline" viewBox="0 0 20 19">
			<path d="M20 7.2l-7.2-.6L10 0 7.2 6.6 0 7.2 5.5 12l-1.6 7 6.2-3.7 6.2 3.7-1.6-7L20 7.2zm-10 6.2l-3.8 2.3 1-4.3-3.3-2.9 4.4-.4 1.7-4 1.7 4 4.4.4-3.3 2.9 1 4.3-3.8-2.3z"></path>
		</symbol>
	
		<symbol id="truck" viewBox="0 0 24 24">
			<path d="M23.7 10.3l-3-3c-.2-.2-.4-.3-.7-.3h-3V3c0-.6-.4-1-1-1H1c-.6 0-1 .4-1 1v13c0 .6.4 1 1 1h1.4c-.3.5-.4 1-.4 1.5C2 20.4 3.6 22 5.5 22S9 20.4 9 18.5c0-.5-.1-1-.4-1.5h6.7c-.2.5-.4 1-.4 1.5 0 1.9 1.6 3.5 3.5 3.5s3.5-1.6 3.5-3.5c0-.5-.1-1-.4-1.5H23c.6 0 1-.4 1-1v-5c0-.3-.1-.5-.3-.7zM2 4h13v11H2V4zm5 14.5c0 .8-.7 1.5-1.5 1.5S4 19.3 4 18.5 4.7 17 5.5 17s1.5.7 1.5 1.5zm13 0c0 .8-.7 1.5-1.5 1.5s-1.5-.7-1.5-1.5.7-1.5 1.5-1.5 1.5.7 1.5 1.5zm2-3.5h-5V9h2.6l2.4 2.4V15z"></path>
		</symbol>
	
		<symbol id="user" viewBox="0 0 18 20">
			<path d="M9 10c-2.8 0-5-2.2-5-5s2.2-5 5-5 5 2.2 5 5-2.2 5-5 5zm0-2c1.7 0 3-1.3 3-3s-1.3-3-3-3-3 1.3-3 3 1.3 3 3 3zm9 11c0 .6-.4 1-1 1s-1-.4-1-1v-2c0-1.7-1.3-3-3-3H5c-1.7 0-3 1.3-3 3v2c0 .6-.4 1-1 1s-1-.4-1-1v-2c0-2.8 2.2-5 5-5h8c2.8 0 5 2.2 5 5v2z"></path>
		</symbol>
	
		<symbol id="vkontakte" viewBox="0 0 50 50">
			<path d="M45 1H5C2.8 1 1 2.8 1 5v40c0 2.2 1.8 4 4 4h40c2.2 0 4-1.8 4-4V5c0-2.2-1.8-4-4-4z"></path><path d="M26 34c1 0 1-1.4 1-2 0-1 1-2 2-2s2.7 1.7 4 3c1 1 1 1 2 1h3s2-.1 2-2c0-.6-.7-1.7-3-4-2-2-3-1 0-5 1.8-2.5 3.2-4.7 3-5.3-.2-.6-5.3-1.6-6-.7-2 3-2.4 3.7-3 5-1 2-1.1 3-2 3-.9 0-1-1.9-1-3 0-3.3.5-5.6-1-6h-3c-1.6 0-3 1-3 1s-1.2 1-1 1c.3 0 2-.4 2 1v2s0 4-1 4-3-4-5-7c-.8-1.2-1-1-2-1h-3c-1 0-1.1.6-1 1 2 5 3.4 8.1 7.2 12.1 3.5 3.6 5.8 3.8 7.8 3.9h1z"></path>
		</symbol>
	
		<symbol id="weight-scale" viewBox="0 0 24 19">
			<path d="M19.7 3h-3.8c-.4-2-2-3-3.9-3S8.6 1 8.1 3H4.3l-3.2 8h2.2L5 6.7 7.5 13H0v1c0 2.8 2.2 5 5 5s5-2.2 5-5v-.2L6.5 5h1.7c.4 2 2 3 3.9 3s3.4-1 3.9-3h1.5L15 11h2.2L19 6.5l2.6 6.5H14v1c0 2.8 2.2 5 5 5s5-2.2 5-5v-.2L19.7 3zM5 17c-1.3 0-2.4-1-2.8-2h5.7c-.5 1-1.6 2-2.9 2zm7-11c-1.1 0-2-.9-2-2s.9-2 2-2 2 .9 2 2-.9 2-2 2zm7 11c-1.3 0-2.4-1-2.8-2h5.7c-.5 1-1.6 2-2.9 2z"></path>
		</symbol>
	
		<symbol id="whatsapp" viewBox="0 0 30 32">
			<path d="M13.8 16.8c-.8-.7-1.6-1.7-2-2.6-.1-.1-.2-.4 0-.6.3-.5.4-.5.8-.9.3-.3.5-.6.4-.9l-1.3-3.3c-.1-.2-.5-.3-.9-.3-.3 0-.7 0-1 .1-.5.2-1.7 1.8-1.8 2.9-.3 2.4 1.9 5.6 4.1 7.6 2.2 2 5.6 3.9 7.9 3.4 1.1-.3 2.5-1.5 2.6-2.1.1-.3 0-.6 0-1s-.1-.7-.3-.8L19.4 17c-.3-.1-.5 0-.8.3-.3.4-.5.6-.8 1-.2.3-.3.4-.6.5-.3.1-.6-.1-.7-.1-.9-.4-1.9-1.2-2.7-1.9zM4.3 27l1.6-4.2C4.1 20.7 3 18 3 15 3 8.4 8.4 3 15 3s12 5.4 12 12-5.4 12-12 12c-2.7 0-5.1-.9-7.1-2.3L4.3 27zm-2-4.1L0 32l8.1-3.7c2.1 1.1 4.4 1.7 6.9 1.7 8.3 0 15-6.7 15-15S23.3 0 15 0 0 6.7 0 15c0 2.9.8 5.6 2.3 7.9z"></path>
		</symbol>
	
		<symbol id="youtube" viewBox="0 0 50 50">
			<path d="M45 1H5C2.8 1 1 2.8 1 5v40c0 2.2 1.8 4 4 4h40c2.2 0 4-1.8 4-4V5c0-2.2-1.8-4-4-4z"></path><path d="M39.7 19s-.3-2.1-1.2-3c-1.1-1.2-2.4-1.2-3-1.3-4.2-.2-10.5-.2-10.5-.2s-6.3 0-10.5.3c-.6.1-1.9.1-3 1.3-.9.9-1.2 3-1.2 3s-.3 2-.3 4.4v3c0 2.4.3 4.5.3 4.5s.3 2.1 1.2 3c1.1 1.2 2.6 1.2 3.3 1.3 2.4.2 10.2.2 10.2.2s6.3.1 10.5-.2c.6-.1 1.9-.1 3-1.3.9-.9 1.2-3 1.2-3s.3-2.1.3-4.5v-3c0-2.4-.3-4.5-.3-4.5zM21 29v-8l8 4-8 4z"></path>
		</symbol>
	
</svg>
