<svg xmlns="http://www.w3.org/2000/svg" viewBox="0 0 66 30"><defs><style>.cls-1{fill:#003663;}.cls-2{fill:#ff0018;}.cls-2,.cls-3{fill-rule:evenodd;}.cls-3,.cls-4{fill:#ffaa18;}.cls-5{fill:#fff;}</style></defs><title>mastercard</title><g id="Слой_2" data-name="Слой 2"><g id="Слой_1-2" data-name="Слой 1"><rect class="cls-1" width="66" height="30" rx="3.06"/><g id="g3478"><g id="g3456"><g id="g3159"><path id="path3086" class="cls-2" d="M24.61,2.46A12.54,12.54,0,1,0,33,24.37l.52-.49.17-.16H32.31l.17.16-.17-.16c-.24-.25-.47-.51-.69-.77l-.14-.18.14.18h2.75c.19-.24.38-.48.56-.73H31.06c.09.12.18.25.28.37-.1-.12-.19-.25-.28-.37-.21-.31-.42-.62-.6-.95A10.57,10.57,0,0,1,29.8,20c-.06-.13-.11-.25-.16-.38s-.1-.25-.14-.37-.18-.51-.25-.77h7.49c.07-.25.14-.5.19-.75H29.06c0,.19.09.37.14.56-.05-.19-.1-.37-.14-.56-.08-.37-.15-.75-.2-1.14,0,0,0-.08,0-.12s0,.08,0,.12,0,.25.05.37h8.17l.09-.73H28.82c0-.26,0-.51-.05-.77v0h8.45v-.22h0v-.56c0-.43,0-.85-.1-1.26H28.87c0,.26-.06.53-.08.8,0,.06,0,.13,0,.2a1,1,0,0,1,0,.17,1,1,0,0,0,0-.17c0-.07,0-.14,0-.2a12.48,12.48,0,0,1,.37-2.32c.07-.26.15-.52.23-.77l.06-.18.06-.18-.06.18-.06.18H36.6c-.08-.24-.16-.48-.26-.71H29.65a1.22,1.22,0,0,0-.07.17,1.22,1.22,0,0,1,.07-.17c.1-.26.21-.52.33-.77l.11-.21.1-.2-.1.2L30,9.62h6c0-.1-.1-.19-.14-.28l-.07-.13,0,0,0,0c0-.07-.07-.13-.1-.19l-.08-.15H30.41c.15-.26.31-.52.48-.77L31,7.86l.12-.18.26-.33A8,8,0,0,1,32,6.58H34a2.73,2.73,0,0,0-.23-.25,9.69,9.69,0,0,0-.73-.7A12.59,12.59,0,0,0,24.61,2.46Zm6.78,4.89-.26.33L31,7.86,30.89,8H35.1c-.16-.23-.33-.46-.5-.68Zm-2.23,4.52c-.06.24-.12.49-.16.74h8c0-.25-.11-.5-.17-.74Zm.34,7.35c0,.12.09.25.14.37s.1.25.16.38h6.4c.1-.25.2-.5.29-.75Zm1,2.05a1.62,1.62,0,0,0,.1.18h4.87l.4-.71H30.16C30.26,20.92,30.35,21.1,30.46,21.27ZM34.14,6.78l.09.11Zm1.07,1.43a1,1,0,0,1,.08.11A1,1,0,0,0,35.21,8.21Zm.18.27a.41.41,0,0,0,.07.11A.41.41,0,0,1,35.39,8.48Zm.69,1.3a1,1,0,0,1,.07.15A1,1,0,0,0,36.08,9.78ZM35.71,21a.2.2,0,0,1,0,.08A.59.59,0,0,0,35.71,21Zm-.43.74a.61.61,0,0,1-.07.1A.61.61,0,0,0,35.28,21.69Zm-1.05,1.42-.09.11Zm-.2.23-.11.12Zm-.25.27-.08.09Z"/><path id="path3155" class="cls-3" d="M41.38,2.46A12.59,12.59,0,0,0,33,5.63a12.16,12.16,0,0,1,1,1H32a8,8,0,0,0-.65.77H34.6c.17.22.34.45.5.68H30.89c-.17.25-.33.51-.48.77h5.17c.15.27.29.54.43.82H30c-.12.25-.23.51-.33.77h6.69c.1.23.18.47.26.71H29.39A12.86,12.86,0,0,0,29,12.61c0-.25.1-.5.16-.74h7.67c.06.24.12.49.17.74H29a8.13,8.13,0,0,0-.15,1,1.23,1.23,0,0,1,0-.19h8.25a12.1,12.1,0,0,1,.1,1.61v.43H28.77c0,.26,0,.51.05.77h8.35l-.09.73H28.91c0,.26.09.51.15.77h7.87c0,.25-.12.5-.19.75H29.25c.07.26.16.51.25.77h7c-.09.25-.19.5-.29.75H29.8a12.16,12.16,0,0,0,.76,1.48l-.4-.71h5.67l-.4.71H30.56c.16.26.33.52.5.77h3.87c-.18.25-.37.49-.56.73H31.62c.22.26.45.52.69.77h1.37l-.68.65A12.57,12.57,0,1,0,41.38,2.46ZM31.06,22.22l.14.18ZM29.8,20q-.16-.37-.3-.75Q29.64,19.6,29.8,20Zm-1-4.54v0Zm0-.22v0Zm.08-1.63c0,.14,0,.27,0,.4C28.82,13.85,28.83,13.72,28.85,13.58Zm0,.4a.92.92,0,0,0,0,.16A.92.92,0,0,1,28.81,14Zm.58-2.88.06-.18Zm.26-.71-.06.14ZM30.89,8,31,7.86ZM31,7.86l.12-.18Zm-.82,1.35-.09.18Zm-.62,1.38-.06.15Zm-.79,3.8c0,.06,0,.13,0,.19S28.78,14.45,28.78,14.39Zm.08,2.17s0,.08,0,.12S28.87,16.6,28.86,16.56Zm.2,1.14c0,.07,0,.13,0,.19S29.07,17.76,29.06,17.7Zm.09.37c0,.06,0,.12,0,.18S29.16,18.13,29.15,18.07Zm3.18,5.66.15.15Z"/></g><g id="g3442"><path id="text9407" class="cls-4" d="M52.61,22.16a.6.6,0,0,1,.29.08.47.47,0,0,1,.22.22.6.6,0,0,1,0,.6.52.52,0,0,1-.22.22.6.6,0,0,1-.29.08.61.61,0,0,1-.3-.08.66.66,0,0,1-.22-.22.6.6,0,0,1,0-.6.52.52,0,0,1,.22-.22.67.67,0,0,1,.3-.08m0,.1a.45.45,0,0,0-.25.07.39.39,0,0,0-.18.18.45.45,0,0,0-.07.25.46.46,0,0,0,.25.43.55.55,0,0,0,.25.07.51.51,0,0,0,.24-.07A.47.47,0,0,0,53,23a.55.55,0,0,0,0-.5.47.47,0,0,0-.19-.18.44.44,0,0,0-.24-.07m-.26.83v-.64h.22a.34.34,0,0,1,.16,0,.16.16,0,0,1,.08.06.16.16,0,0,1,0,.09.17.17,0,0,1-.05.12.16.16,0,0,1-.13.06.1.1,0,0,1,.05,0,.44.44,0,0,1,.1.12l.08.13h-.13L52.7,23a.41.41,0,0,0-.11-.15s0,0-.08,0h-.06v.27h-.1m.1-.36h.13a.17.17,0,0,0,.12,0,.09.09,0,0,0,0-.07.07.07,0,0,0,0-.05s0,0,0,0l-.1,0h-.12v.2"/></g></g><g id="g3463"><g id="g3445"><path id="path3447" class="cls-5" d="M52.61,17a.6.6,0,0,1,.29.08.47.47,0,0,1,.22.22.52.52,0,0,1,.08.3.51.51,0,0,1-.08.29.47.47,0,0,1-.22.22.51.51,0,0,1-.29.08.6.6,0,0,1-.52-.3.6.6,0,0,1-.08-.29.61.61,0,0,1,.08-.3.52.52,0,0,1,.22-.22.67.67,0,0,1,.3-.08m0,.1a.54.54,0,0,0-.25.06.47.47,0,0,0-.18.19.45.45,0,0,0-.07.25.53.53,0,0,0,.06.24.58.58,0,0,0,.19.19.54.54,0,0,0,.25.06.5.5,0,0,0,.24-.06.5.5,0,0,0,.19-.19.53.53,0,0,0,.06-.24.54.54,0,0,0-.06-.25.58.58,0,0,0-.19-.19.53.53,0,0,0-.24-.06m-.26.83v-.65h.22l.16,0a.16.16,0,0,1,.08.06.17.17,0,0,1,0,.1.18.18,0,0,1-.05.12.26.26,0,0,1-.13.06l.05,0,.1.13.08.13h-.13l-.06-.11a.52.52,0,0,0-.11-.15l-.08,0h-.06V18h-.1m.1-.37h.13c.06,0,.1,0,.12,0a.09.09,0,0,0,0-.07.07.07,0,0,0,0-.05l0,0h-.22v.19"/></g></g></g><g id="layer1"><g id="g16480"><g id="g10289"><path id="path4157" class="cls-5" d="M28.73,18l.16-.95c-.09,0-.22,0-.34,0-.46,0-.51-.21-.48-.36l.37-2h.7l.17-1.06h-.66l.13-.66H27.46s-.77,3.71-.77,4.16c0,.66.43,1,1,.95A3.91,3.91,0,0,0,28.73,18Z"/><path id="path4155" class="cls-5" d="M29.14,16.17c0,1.59,1.23,2,2.28,2A3.72,3.72,0,0,0,32.81,18l.24-1.08a4.82,4.82,0,0,1-1.4.27c-1.42,0-1.17-.9-1.17-.9h2.68a7.11,7.11,0,0,0,.17-1c0-.74-.43-1.64-1.88-1.64a2.47,2.47,0,0,0-2.31,2.6Zm2.32-1.59c.74,0,.6.71.6.77H30.6A.86.86,0,0,1,31.46,14.58Z"/><path id="path4151" class="cls-5" d="M39.81,18,40,16.76A3.48,3.48,0,0,1,39,17a1.19,1.19,0,0,1-1.31-1.26,1.83,1.83,0,0,1,1.7-2.07,2.57,2.57,0,0,1,1.21.33l.22-1.2a5.54,5.54,0,0,0-1.49-.27,3,3,0,0,0-3,3.24,2.15,2.15,0,0,0,2.37,2.34A6.84,6.84,0,0,0,39.81,18Z"/><path id="path4149" class="cls-5" d="M21.47,13.59a5.46,5.46,0,0,0-1.6.24l-.19,1a5.07,5.07,0,0,1,1.44-.19c.49,0,.85,0,.85.38a.72.72,0,0,1,0,.29l-.57,0c-1.14,0-2.34.41-2.34,1.67a1.16,1.16,0,0,0,1.27,1.21,1.84,1.84,0,0,0,1.36-.51l0,.43h1.17l.51-3.11C23.28,13.63,21.94,13.59,21.47,13.59Zm.28,2.52c0,.19-.13,1.08-.93,1.08-.41,0-.51-.27-.51-.43s.19-.67,1.16-.67a1.45,1.45,0,0,1,.28,0Z"/><path id="path4145" class="cls-5" d="M24.52,18.11c.29,0,2,.06,2-1.43S24.94,15.56,24.94,15c0-.28.26-.37.73-.37.18,0,.9.06.9.06l.16-1a7,7,0,0,0-1.21-.09c-1,0-2,.33-2,1.47s1.65,1.16,1.65,1.71c0,.36-.46.39-.82.39A5.25,5.25,0,0,1,23.21,17L23,18a4.7,4.7,0,0,0,1.48.14Z"/><path id="path4139" class="cls-5" d="M50.73,12.69l-.28,1.51a1.82,1.82,0,0,0-1.28-.59A2.52,2.52,0,0,0,47,16.29a1.67,1.67,0,0,0,1.63,1.83,1.76,1.76,0,0,0,1.23-.47l-.06.4h1.29l1-5.36Zm-.61,2.94c0,.6-.35,1.39-1.06,1.39-.48,0-.7-.34-.7-.87,0-.88.46-1.45,1-1.45S50.12,15,50.12,15.63Z"/><path id="path4133" class="cls-5" d="M14.33,18.05l.8-4,.12,4h.91l1.7-4-.75,4h1.35l1-5.36H17.41L16.11,16,16,12.69H14.12l-1.06,5.36Z"/><path id="path4131" class="cls-5" d="M34.65,18.06C35,16.2,35.11,14.68,36,15a4.12,4.12,0,0,1,.49-1.31h-.25c-.59,0-1,.69-1,.69l.12-.64H34.12l-.82,4.37Z"/><g id="use8523"><path id="path4149-2" data-name="path4149" class="cls-5" d="M42.85,13.59a5.46,5.46,0,0,0-1.6.24l-.19,1a5,5,0,0,1,1.44-.19c.49,0,.85,0,.85.38a.6.6,0,0,1-.05.29l-.56,0c-1.14,0-2.34.41-2.34,1.67a1.16,1.16,0,0,0,1.27,1.21A1.82,1.82,0,0,0,43,17.62l0,.43h1.16l.52-3.11c0-1.31-1.34-1.35-1.81-1.35Zm.28,2.52c0,.19-.14,1.08-.93,1.08-.41,0-.52-.27-.52-.43s.2-.67,1.17-.67a1.58,1.58,0,0,1,.28,0Z"/></g><g id="use8525"><path id="path4131-2" data-name="path4131" class="cls-5" d="M45.72,18.06c.39-1.86.46-3.38,1.37-3.1a4.12,4.12,0,0,1,.49-1.31h-.25c-.59,0-1,.69-1,.69l.12-.64H45.19l-.82,4.37Z"/></g></g></g></g></g></g></svg>