<svg version="1.1" xmlns="http://www.w3.org/2000/svg" viewBox="0 0 24 24" width="24" height="24">
<path d="M20.7,0c-1.8,0-3.3,1.5-3.3,3.3v17.5c0,1.8,1.5,3.3,3.3,3.3s3.3-1.5,3.3-3.3V3.3C24,1.5,22.5,0,20.7,0z M21.8,20.7
	c0,0.6-0.5,1.1-1.1,1.1c-0.6,0-1.1-0.5-1.1-1.1V3.3c0-0.6,0.5-1.1,1.1-1.1c0.6,0,1.1,0.5,1.1,1.1V20.7z"/>
<path d="M12,6.5c-1.8,0-3.3,1.5-3.3,3.3v10.9c0,1.8,1.5,3.3,3.3,3.3s3.3-1.5,3.3-3.3V9.8C15.3,8,13.8,6.5,12,6.5z M13.1,20.7
	c0,0.6-0.5,1.1-1.1,1.1s-1.1-0.5-1.1-1.1V9.8c0-0.6,0.5-1.1,1.1-1.1s1.1,0.5,1.1,1.1V20.7z"/>
<path d="M3.3,13.1c-1.8,0-3.3,1.5-3.3,3.3v4.4C0,22.5,1.5,24,3.3,24s3.3-1.5,3.3-3.3v-4.4C6.5,14.6,5.1,13.1,3.3,13.1z M4.4,20.7
	c0,0.6-0.5,1.1-1.1,1.1s-1.1-0.5-1.1-1.1v-4.4c0-0.6,0.5-1.1,1.1-1.1s1.1,0.5,1.1,1.1V20.7z"/>
</svg>