<?xml version="1.0" encoding="utf-8"?>
<!-- Generator: Adobe Illustrator 23.1.0, SVG Export Plug-In . SVG Version: 6.00 Build 0)  -->
<svg version="1.1" id="Layer_1" xmlns="http://www.w3.org/2000/svg" xmlns:xlink="http://www.w3.org/1999/xlink" x="0px" y="0px"
	 viewBox="0 0 20.8 19" style="enable-background:new 0 0 20.8 19;" xml:space="preserve">
<path d="M5.3,2L4.8,0H1C0.4,0,0,0.4,0,1s0.4,1,1,1h2.2l3.2,13h13.3v-2H8l-0.3-1.3l13.1-2.5V2H5.3z M18.8,7.5L7.2,9.7L5.8,4h13V7.5z
	 M6.8,16c-0.8,0-1.5,0.7-1.5,1.5S5.9,19,6.8,19s1.5-0.7,1.5-1.5S7.6,16,6.8,16z M18.8,16c-0.8,0-1.5,0.7-1.5,1.5s0.7,1.5,1.5,1.5
	s1.5-0.7,1.5-1.5S19.6,16,18.8,16z"/>
</svg>
