<svg version="1.1" xmlns="http://www.w3.org/2000/svg" viewBox="0 0 24 24" width="24" height="24">
<path d="M10.1,5.2C10.7,5.1,11.4,5,12,5c5.4,0,8.9,5.4,9.9,7c-0.5,0.9-1.1,1.8-1.8,2.5c-0.4,0.4-0.3,1.1,0.1,1.4
	c0.2,0.2,0.4,0.2,0.6,0.2c0.3,0,0.6-0.1,0.8-0.4c0.9-1,1.6-2.2,2.3-3.4c0.2-0.3,0.2-0.6,0-0.9C23.7,11.2,19.5,3,12,3
	c-0.8,0-1.6,0.1-2.3,0.3C9.1,3.4,8.8,3.9,8.9,4.5C9.1,5,9.6,5.3,10.1,5.2z"/>
<path d="M23.7,22.3l-22-22c-0.4-0.4-1-0.4-1.4,0s-0.4,1,0,1.4L4.6,6c-1.8,1.6-3.3,3.4-4.5,5.5c-0.2,0.3-0.2,0.6,0,0.9
	C0.3,12.8,4.5,21,12,21c2.1,0,4.1-0.6,5.8-1.8l4.5,4.5c0.2,0.2,0.5,0.3,0.7,0.3s0.5-0.1,0.7-0.3C24.1,23.3,24.1,22.7,23.7,22.3z
	 M10,11.4l2.5,2.5c-0.2,0.1-0.4,0.1-0.6,0.1c-0.5,0-1-0.2-1.4-0.5C10,13,9.8,12.2,10,11.4z M12,19c-5.4,0-8.9-5.4-9.9-7
	c1-1.8,2.3-3.3,3.9-4.6L8.5,10c-1,1.6-0.8,3.7,0.7,5c0.7,0.7,1.7,1.1,2.7,1.1c0,0,0.1,0,0.1,0c0.7,0,1.4-0.3,2-0.6l2.3,2.3
	C15,18.6,13.5,19,12,19z"/>
</svg>