<?xml version="1.0" encoding="utf-8"?>
<!-- Generator: Adobe Illustrator 23.1.0, SVG Export Plug-In . SVG Version: 6.00 Build 0)  -->
<svg version="1.1" id="Слой_1" xmlns="http://www.w3.org/2000/svg" xmlns:xlink="http://www.w3.org/1999/xlink" x="0px" y="0px"
	 viewBox="0 0 26 18" style="enable-background:new 0 0 26 18;" xml:space="preserve">
<path d="M13,18c-2.8,0-5.5-1.1-7.5-3.1L0.3,9.7c-0.4-0.4-0.4-1,0-1.4c0,0,0,0,0,0l5.2-5.2C9.6-1,16.4-1,20.5,3.1l5.2,5.2
	c0.4,0.4,0.4,1,0,1.4c0,0,0,0,0,0l-5.2,5.2C18.5,16.9,15.8,18,13,18z M2.4,9l4.5,4.5c3.4,3.4,8.9,3.4,12.2,0L23.6,9l-4.5-4.5
	c-3.4-3.4-8.9-3.4-12.2,0L2.4,9z"/>
<path d="M13,13c-2.2,0-4-1.8-4-4s1.8-4,4-4s4,1.8,4,4S15.2,13,13,13z M13,7c-1.1,0-2,0.9-2,2s0.9,2,2,2s2-0.9,2-2S14.1,7,13,7z"/>
</svg>
