<?xml version="1.0" encoding="utf-8"?>
<!-- Generator: Adobe Illustrator 23.1.0, SVG Export Plug-In . SVG Version: 6.00 Build 0)  -->
<svg version="1.1" id="Layer_1" xmlns="http://www.w3.org/2000/svg" xmlns:xlink="http://www.w3.org/1999/xlink" x="0px" y="0px"
	 viewBox="0 0 20 18" style="enable-background:new 0 0 20 18;" xml:space="preserve">
<path d="M14.4,2c2,0,3.6,1.6,3.6,3.6s-3.9,6.4-8,9.8c-4.1-3.5-8-7.9-8-9.8C2,3.6,3.6,2,5.6,2C8,2,10,5,10,5S11.9,2,14.4,2 M14.4,0
	C12.6,0,11,0.9,10,2.3C9,0.9,7.4,0,5.6,0C2.5,0,0,2.5,0,5.6C0,10,10,18,10,18s10-8,10-12.4C20,2.5,17.5,0,14.4,0L14.4,0z"/>
</svg>
