<?xml version="1.0" encoding="utf-8"?>
<!-- Generator: Adobe Illustrator 23.1.0, SVG Export Plug-In . SVG Version: 6.00 Build 0)  -->
<svg version="1.1" id="Слой_1" xmlns="http://www.w3.org/2000/svg" xmlns:xlink="http://www.w3.org/1999/xlink" x="0px" y="0px"
	 viewBox="0 0 19.8 30.8" style="enable-background:new 0 0 19.8 30.8;" xml:space="preserve">
<style type="text/css">
	.st0{fill-rule:evenodd;clip-rule:evenodd;}
</style>
<path id="flash" class="st0" d="M7.8,18.4H1c-0.2,0-0.5-0.1-0.6-0.2c-0.4-0.3-0.5-1-0.1-1.4L13.7,0.4c0.3-0.3,0.7-0.4,1.1-0.3
	c0.5,0.2,0.8,0.7,0.7,1.2L12,12.4h6.8c0.2,0,0.5,0.1,0.6,0.2c0.4,0.3,0.5,1,0.1,1.4L6.1,30.5c-0.3,0.3-0.7,0.4-1.1,0.3
	c-0.5-0.2-0.8-0.7-0.7-1.2L7.8,18.4z"/>
</svg>
