<?xml version="1.0" encoding="utf-8"?>
<!-- Generator: Adobe Illustrator 23.1.0, SVG Export Plug-In . SVG Version: 6.00 Build 0)  -->
<svg version="1.1" id="Слой_1" xmlns="http://www.w3.org/2000/svg" xmlns:xlink="http://www.w3.org/1999/xlink" x="0px" y="0px"
	 viewBox="0 0 24 25" style="enable-background:new 0 0 24 25;" xml:space="preserve">
<path d="M22,5h-3.7c0.5-0.3,1-0.8,1.4-1.3c0.6-1,0.5-2.3-0.4-3.1c-0.5-0.3-1-0.6-1.6-0.6c-1.6-0.2-3.2,0.3-4.5,1.2
	C12.7,1.6,12.3,2,12,2.4c-0.3-0.4-0.7-0.8-1.1-1.1C9.6,0.3,8-0.1,6.4,0c-0.6,0-1.1,0.2-1.6,0.6c-0.9,0.8-1,2.1-0.4,3.1
	c0.3,0.5,0.8,1,1.4,1.3H2C1.5,5,1.1,5.3,1,5.8l-1,5c-0.1,0.5,0.2,1.1,0.8,1.2c0.1,0,0.1,0,0.2,0h1v12c0,0.6,0.4,1,1,1h18
	c0.6,0,1-0.4,1-1V12h1c0.6,0,1-0.4,1-1c0-0.1,0-0.1,0-0.2l-1-5C22.9,5.3,22.5,5,22,5z M21.8,10H16V7h5.2L21.8,10z M10,7h4v3h-4V7z
	 M14.3,2.9C15.1,2.3,16,2,17,2c0.2,0,0.3,0,0.5,0c0.2,0,0.4,0.1,0.5,0.1c0.1,0.2,0.1,0.4,0,0.5c-0.3,0.4-0.7,0.7-1.1,0.9
	c-1.2,0.6-2.4,1.1-3.7,1.3c0-0.1,0-0.1,0-0.2C13.3,4,13.7,3.3,14.3,2.9z M6.1,2.2C6.2,2.1,6.4,2,6.6,2C6.7,2,6.9,2,7,2
	C8,2,8.9,2.3,9.7,2.9c0.6,0.5,1,1.1,1.3,1.8c0,0.1,0,0.1,0,0.2C9.6,4.6,8.4,4.2,7.2,3.6C6.8,3.4,6.4,3.1,6.1,2.7
	C6,2.5,6,2.3,6.1,2.2L6.1,2.2z M2.8,7H8v3H2.2L2.8,7z M4,12h5v11H4V12z M11,23V12h2v11H11z M20,23h-5V12h5V23z"/>
</svg>
