<svg version="1.1" xmlns="http://www.w3.org/2000/svg" viewBox="0 0 24 24" width="24" height="24">
<path d="M20.5,20.5c2.2-2.2,3.5-5.2,3.5-8.5s-1.3-6.3-3.5-8.5c0,0,0,0,0,0s0,0,0,0C18.3,1.3,15.3,0,12,0C8.7,0,5.7,1.3,3.5,3.5
	c0,0,0,0,0,0c0,0,0,0,0,0C1.3,5.7,0,8.7,0,12s1.3,6.3,3.5,8.5c0,0,0,0,0,0c0,0,0,0,0,0C5.7,22.7,8.7,24,12,24
	C15.3,24,18.3,22.7,20.5,20.5C20.5,20.5,20.5,20.5,20.5,20.5C20.5,20.5,20.5,20.5,20.5,20.5z M19.7,18.1L16.5,15
	c0.6-0.9,0.9-1.9,0.9-3s-0.3-2.1-0.9-3l3.1-3.1c1.3,1.7,2.2,3.8,2.2,6.1C21.8,14.3,21,16.4,19.7,18.1z M8.7,12
	c0-1.8,1.5-3.3,3.3-3.3s3.3,1.5,3.3,3.3s-1.5,3.3-3.3,3.3S8.7,13.8,8.7,12z M18.1,4.3L15,7.5c-0.9-0.6-1.9-0.9-3-0.9S9.9,6.9,9,7.5
	L5.9,4.3C7.6,3,9.7,2.2,12,2.2C14.3,2.2,16.4,3,18.1,4.3z M4.3,5.9L7.5,9c-0.6,0.9-0.9,1.9-0.9,3s0.3,2.1,0.9,3l-3.1,3.1
	C3,16.4,2.2,14.3,2.2,12C2.2,9.7,3,7.6,4.3,5.9z M5.9,19.7L9,16.5c0.9,0.6,1.9,0.9,3,0.9s2.1-0.3,3-0.9l3.1,3.1
	c-1.7,1.3-3.8,2.2-6.1,2.2C9.7,21.8,7.6,21,5.9,19.7z"/>
</svg>