<?xml version="1.0" encoding="utf-8"?>
<!-- Generator: Adobe Illustrator 23.1.0, SVG Export Plug-In . SVG Version: 6.00 Build 0)  -->
<svg version="1.1" id="Слой_1" xmlns="http://www.w3.org/2000/svg" xmlns:xlink="http://www.w3.org/1999/xlink" x="0px" y="0px"
	 viewBox="0 0 18 21.9" style="enable-background:new 0 0 18 21.9;" xml:space="preserve">
<path d="M9,0C4,0,0,4.1,0,9.1c0,2.4,1,4.8,2.6,6.4L9,21.9l6.4-6.4c1.5-1.6,2.6-4,2.6-6.4C18,4.1,14,0,9,0z M14,14.1l-5,5l-5-5
	c-1.3-1.4-2-3.3-2-5C2,5.2,5.1,2,9,2c3.9,0,7,3.2,7,7.1C16,10.9,15.2,12.8,14,14.1z"/>
<path d="M9,4.9C6.8,4.9,4.9,6.8,4.9,9s1.8,4.1,4.1,4.1s4.1-1.8,4.1-4.1C13.1,6.8,11.2,4.9,9,4.9z M9,11.1c-1.1,0-2.1-0.9-2.1-2.1
	S7.9,6.9,9,6.9s2.1,0.9,2.1,2.1S10.1,11.1,9,11.1z"/>
</svg>
