<svg version="1.1" xmlns="http://www.w3.org/2000/svg" viewBox="0 0 24 24" width="24" height="24">
<path d="M12,24C5.4,24,0,18.6,0,12S5.4,0,12,0s12,5.4,12,12S18.6,24,12,24z M12,2.2c-5.4,0-9.8,4.4-9.8,9.8c0,5.4,4.4,9.8,9.8,9.8
	c5.4,0,9.8-4.4,9.8-9.8C21.8,6.6,17.4,2.2,12,2.2z"/>
<path d="M7.4,17.7c-0.3,0-0.6-0.1-0.8-0.3c-0.3-0.3-0.4-0.7-0.3-1.1l2.3-6.9C8.8,9,9,8.8,9.3,8.7l6.9-2.3c0.4-0.1,0.8,0,1.1,0.3
	c0.3,0.3,0.4,0.7,0.3,1.1l-2.3,6.9c-0.1,0.3-0.4,0.6-0.7,0.7l-6.9,2.3C7.6,17.7,7.5,17.7,7.4,17.7z M10.5,10.5l-1.5,4.4l4.4-1.5
	l1.5-4.4L10.5,10.5z"/>
</svg>