<svg version="1.1" id="Слой_1" xmlns="http://www.w3.org/2000/svg" viewBox="0 0 24 24" width="24" height="24">
	<path d="M20.7,4.4h-9.2L9.6,1.6C9.4,1.3,9.1,1.1,8.7,1.1H3.3C1.5,1.1,0,2.6,0,4.4v15.3c0,1.8,1.5,3.3,3.3,3.3h17.5
		c1.8,0,3.3-1.5,3.3-3.3v-12C24,5.8,22.5,4.4,20.7,4.4z M21.8,19.6c0,0.6-0.5,1.1-1.1,1.1H3.3c-0.6,0-1.1-0.5-1.1-1.1V4.4
		c0-0.6,0.5-1.1,1.1-1.1h4.9L10,6.1c0.2,0.3,0.5,0.5,0.9,0.5h9.8c0.6,0,1.1,0.5,1.1,1.1V19.6z"/>
	<path d="M15.3,13.1h-2.2v-2.2c0-0.6-0.5-1.1-1.1-1.1s-1.1,0.5-1.1,1.1v2.2H8.7c-0.6,0-1.1,0.5-1.1,1.1c0,0.6,0.5,1.1,1.1,1.1h2.2
		v2.2c0,0.6,0.5,1.1,1.1,1.1s1.1-0.5,1.1-1.1v-2.2h2.2c0.6,0,1.1-0.5,1.1-1.1C16.4,13.6,15.9,13.1,15.3,13.1z"/>
</svg>