<svg version="1.1" xmlns="http://www.w3.org/2000/svg" viewBox="0 0 24 24" width="24" height="24">
<path d="M12,0C5.4,0,0,5.4,0,12s5.4,12,12,12s12-5.4,12-12S18.6,0,12,0z M21.8,10.9h-4.4c-0.2-3-1.2-5.9-2.9-8.4
	C18.3,3.5,21.3,6.8,21.8,10.9z M8.8,13.1h6.4c-0.3,3-1.4,5.8-3.2,8.1C10.2,18.9,9.1,16,8.8,13.1z M8.8,10.9c0.3-3,1.4-5.8,3.2-8.1
	c1.8,2.4,2.9,5.2,3.2,8.1H8.8z M9.5,2.5C7.9,5,6.9,7.9,6.6,10.9H2.2C2.7,6.8,5.7,3.5,9.5,2.5z M2.2,13.1h4.4c0.2,3,1.2,5.9,2.9,8.4
	C5.7,20.5,2.7,17.2,2.2,13.1z M14.5,21.5c1.7-2.5,2.7-5.4,2.9-8.4h4.4C21.3,17.2,18.3,20.5,14.5,21.5z"/>
</svg>