<?xml version="1.0" encoding="utf-8"?>
<!-- Generator: Adobe Illustrator 23.1.0, SVG Export Plug-In . SVG Version: 6.00 Build 0)  -->
<svg version="1.1" id="Layer_1" xmlns="http://www.w3.org/2000/svg" xmlns:xlink="http://www.w3.org/1999/xlink" x="0px" y="0px"
	 viewBox="0 0 85 97.9" style="enable-background:new 0 0 85 97.9;" xml:space="preserve">
<path d="M70.5,85c-0.5,2.9-3,4.9-5.9,4.9H18v8h46.6c6.8,0,12.6-4.9,13.8-11.5l6.4-36c0.7-4.1-0.4-8.3-3-11.4c-2.7-3.2-6.6-5-10.7-5
	H55.2c1.2-3.7,2.8-9.1,4.1-16.2l0.6-4.2C60.8,7,56.2,1,49.7,0.1c-3.2-0.4-6.3,0.4-8.9,2.3c-2.6,1.9-4.2,4.8-4.7,7.9l-0.6,4
	c-0.1,0.5-0.2,1-0.2,1.5c-0.1,0.5-0.2,1-0.3,1.5C31.9,31.9,20.3,43.7,5.3,47.5L0,48.8v49.1h8V55c17.5-4.7,31.2-18.7,34.9-36
	c0.1-0.6,0.2-1.2,0.4-1.8c0.1-0.6,0.2-1.2,0.3-1.8l0.6-4c0.1-1.1,0.7-2,1.6-2.6c0.9-0.6,1.9-0.9,3-0.8c2.2,0.3,3.7,2.3,3.4,4.5
	l-0.5,3.9c-2.1,11.6-5,18.3-5.5,19.6l-0.3,0.8V42h25.5c1.8,0,3.5,0.8,4.6,2.1c1.1,1.4,1.6,3.2,1.3,4.9L70.5,85z"/>
</svg>
