<?xml version="1.0" encoding="utf-8"?>
<!-- Generator: Adobe Illustrator 23.1.0, SVG Export Plug-In . SVG Version: 6.00 Build 0)  -->
<svg version="1.1" id="Layer_1" xmlns="http://www.w3.org/2000/svg" xmlns:xlink="http://www.w3.org/1999/xlink" x="0px" y="0px"
	 viewBox="0 0 19.1 24" style="enable-background:new 0 0 19.1 24;" xml:space="preserve">
<style type="text/css">
	.st0{fill:#1E232D;}
</style>
<path class="st0" d="M6,12c0.1,0,0.1,0,0.2,0l1.9-2.6C7.5,9.7,6.8,10,6,10c-2.2,0-4-1.8-4-4s1.8-4,4-4s4,1.8,4,4
	c0,0.3,0,0.6-0.1,0.9l1.9-2.6C11,1.8,8.7,0,6,0C2.7,0,0,2.7,0,6S2.7,12,6,12z M13.6,12l-1.5,2.1C12.4,14,12.7,14,13,14
	c2.2,0,4,1.8,4,4s-1.8,4-4,4c-2.1,0-3.8-1.6-3.9-3.6l-1.5,2.1c0.9,2.1,3,3.5,5.5,3.5c3.3,0,6-2.7,6-6C19,14.9,16.6,12.3,13.6,12z
	 M16.6,0.8L1.7,21.7l1.6,1.2L18.3,2L16.6,0.8z"/>
</svg>
