<svg viewBox="0 0 30 30" width="48" height="48" xmlns="http://www.w3.org/2000/svg">
	<circle cx="15" cy="5" fill="none" r="1.5"/>
	<path d="M19.09473,19.19141a.98474.98474,0,0,0-1.08985.90039.99873.99873,0,0,0,.90039,1.08984C24.83887,21.749,28,23.47363,28,24.5c0,1.39355-5.18457,3.5-13,3.5S2,25.89355,2,24.5c0-1.02637,3.16113-2.751,9.09473-3.31836a.99873.99873,0,0,0,.90039-1.08984.98345.98345,0,0,0-1.08985-.90039C5.63281,19.69531,0,21.35449,0,24.5,0,28.11035,7.5459,30,15,30s15-1.88965,15-5.5C30,21.35449,24.36719,19.69531,19.09473,19.19141Z"/>
	<path d="M14,13.91992V25a1,1,0,0,0,2,0V13.91992a7,7,0,1,0-2,0ZM15,3.5A1.5,1.5,0,1,1,13.5,5,1.50164,1.50164,0,0,1,15,3.5Z"/>
</svg>