<?xml version="1.0" encoding="utf-8"?>
<!-- Generator: Adobe Illustrator 23.1.0, SVG Export Plug-In . SVG Version: 6.00 Build 0)  -->
<svg version="1.1" id="Слой_1" xmlns="http://www.w3.org/2000/svg" xmlns:xlink="http://www.w3.org/1999/xlink" x="0px" y="0px"
	 viewBox="0 0 18 20" style="enable-background:new 0 0 18 20;" xml:space="preserve">
<path d="M9,10c-2.8,0-5-2.2-5-5s2.2-5,5-5s5,2.2,5,5S11.8,10,9,10z M9,8c1.7,0,3-1.3,3-3s-1.3-3-3-3S6,3.3,6,5S7.3,8,9,8z M18,19
	c0,0.6-0.4,1-1,1s-1-0.4-1-1v-2c0-1.7-1.3-3-3-3H5c-1.7,0-3,1.3-3,3v2c0,0.6-0.4,1-1,1s-1-0.4-1-1v-2c0-2.8,2.2-5,5-5h8
	c2.8,0,5,2.2,5,5V19z"/>
</svg>
