<?xml version="1.0" encoding="utf-8"?>
<!-- Generator: Adobe Illustrator 23.1.0, SVG Export Plug-In . SVG Version: 6.00 Build 0)  -->
<svg version="1.1" id="Layer_1" xmlns="http://www.w3.org/2000/svg" xmlns:xlink="http://www.w3.org/1999/xlink" x="0px" y="0px"
	 viewBox="0 0 24 19" style="enable-background:new 0 0 24 19;" xml:space="preserve">
<style type="text/css">
	.st0{fill:#1E232D;}
</style>
<path class="st0" d="M19.7,3h-3.8c-0.4-2-2-3-3.9-3S8.6,1,8.1,3H4.3l-3.2,8h2.2L5,6.7L7.5,13H0v1c0,2.8,2.2,5,5,5s5-2.2,5-5v-0.2
	L6.5,5h1.7c0.4,2,2,3,3.9,3s3.4-1,3.9-3h1.5L15,11h2.2L19,6.5l2.6,6.5H14v1c0,2.8,2.2,5,5,5s5-2.2,5-5v-0.2L19.7,3z M5,17
	c-1.3,0-2.4-1-2.8-2h5.7C7.4,16,6.3,17,5,17z M12,6c-1.1,0-2-0.9-2-2s0.9-2,2-2s2,0.9,2,2S13.1,6,12,6z M19,17c-1.3,0-2.4-1-2.8-2
	h5.7C21.4,16,20.3,17,19,17z"/>
</svg>
