<?xml version="1.0" encoding="utf-8"?>
<!-- Generator: Adobe Illustrator 23.1.0, SVG Export Plug-In . SVG Version: 6.00 Build 0)  -->
<svg version="1.1" id="Layer_1" xmlns="http://www.w3.org/2000/svg" xmlns:xlink="http://www.w3.org/1999/xlink" x="0px" y="0px"
	 viewBox="0 0 30 32" style="enable-background:new 0 0 30 32;" xml:space="preserve">
<style type="text/css">
	.st0{fill-rule:evenodd;clip-rule:evenodd;fill:#2A9A84;}
</style>
<g>
	<path class="st0" d="M13.8,16.8c-0.8-0.7-1.6-1.7-2-2.6c-0.1-0.1-0.2-0.4,0-0.6c0.3-0.5,0.4-0.5,0.8-0.9c0.3-0.3,0.5-0.6,0.4-0.9
		l-1.3-3.3c-0.1-0.2-0.5-0.3-0.9-0.3c-0.3,0-0.7,0-1,0.1C9.3,8.5,8.1,10.1,8,11.2c-0.3,2.4,1.9,5.6,4.1,7.6c2.2,2,5.6,3.9,7.9,3.4
		c1.1-0.3,2.5-1.5,2.6-2.1c0.1-0.3,0-0.6,0-1c0-0.4-0.1-0.7-0.3-0.8l-2.9-1.3c-0.3-0.1-0.5,0-0.8,0.3c-0.3,0.4-0.5,0.6-0.8,1
		c-0.2,0.3-0.3,0.4-0.6,0.5c-0.3,0.1-0.6-0.1-0.7-0.1C15.6,18.3,14.6,17.5,13.8,16.8L13.8,16.8z M4.3,27l1.6-4.2C4.1,20.7,3,18,3,15
		C3,8.4,8.4,3,15,3c6.6,0,12,5.4,12,12c0,6.6-5.4,12-12,12c-2.7,0-5.1-0.9-7.1-2.3L4.3,27z M2.3,22.9L0,32l8.1-3.7
		c2.1,1.1,4.4,1.7,6.9,1.7c8.3,0,15-6.7,15-15c0-8.3-6.7-15-15-15C6.7,0,0,6.7,0,15C0,17.9,0.8,20.6,2.3,22.9L2.3,22.9z"/>
</g>
</svg>
