<?xml version="1.0" standalone="no"?>
<!DOCTYPE svg PUBLIC "-//W3C//DTD SVG 20010904//EN"
 "http://www.w3.org/TR/2001/REC-SVG-20010904/DTD/svg10.dtd">
<svg version="1.0" xmlns="http://www.w3.org/2000/svg"
 width="600.000000pt" height="600.000000pt" viewBox="0 0 600.000000 600.000000"
 preserveAspectRatio="xMidYMid meet">
<metadata>
Created by potrace 1.11, written by Peter Selinger 2001-2013
</metadata>
<g transform="translate(0.000000,600.000000) scale(0.100000,-0.100000)"
fill="#000000" stroke="none">
<path d="M19 5110 c0 -52 0 -4125 0 -4145 1 -13 59 -15 464 -15 l464 0 1 703
c0 386 1 710 1 720 1 16 42 17 724 17 l722 0 -1 453 c-1 248 -2 455 -3 459 0
5 -326 9 -723 10 l-721 3 1 435 c0 239 1 445 1 458 l1 22 820 0 820 0 0 460 0
460 -1285 0 -1285 0 -1 -40z"/>
<path d="M3030 4968 c-1 -225 -1 -3845 0 -3945 l0 -73 463 0 464 0 -1 532 c-1
293 2 540 6 549 7 15 43 17 350 17 189 0 357 3 373 6 17 2 57 7 90 11 110 12
256 47 332 81 17 8 33 14 36 14 7 0 127 57 152 73 193 120 295 212 409 370
127 178 227 437 261 677 27 191 24 506 -6 665 -5 28 -12 65 -15 84 -10 61 -62
224 -98 309 -129 302 -349 533 -636 669 -80 39 -215 87 -270 97 -14 3 -36 8
-50 11 -14 3 -41 8 -60 11 -19 2 -60 8 -90 13 -30 5 -427 10 -882 10 l-828 1
0 -182z m1558 -762 c29 -3 80 -16 115 -28 233 -80 350 -288 342 -608 -3 -125
-14 -185 -47 -270 -57 -145 -184 -258 -327 -291 -25 -6 -55 -13 -66 -16 -11
-3 -161 -6 -332 -7 -251 -2 -313 1 -314 11 -1 17 -1 1189 0 1206 1 9 65 12
288 11 159 -1 312 -4 341 -8z"/>
</g>
</svg>
