<svg xmlns="http://www.w3.org/2000/svg" xmlns:xlink="http://www.w3.org/1999/xlink" viewBox="0 0 66 30"><defs><style>.cls-1{fill:#fff;}.cls-2{fill:#4db45e;}.cls-2,.cls-3{fill-rule:evenodd;}.cls-3{fill:url(#Безымянный_градиент_2);}</style><linearGradient id="Безымянный_градиент_2" x1="42.87" y1="18.93" x2="57" y2="18.93" gradientTransform="matrix(1, 0, 0, -1, 0, 29.89)" gradientUnits="userSpaceOnUse"><stop offset="0.3" stop-color="#00b4e6"/><stop offset="1" stop-color="#088ccb"/></linearGradient></defs><title>mir</title><g id="Слой_2" data-name="Слой 2"><g id="Слой_1-2" data-name="Слой 1"><rect class="cls-1" width="66" height="30" rx="3.06"/><g id="g5"><path id="path7" class="cls-2" d="M21.93,8.17h0A2.5,2.5,0,0,0,19.56,10c-.46,1.63-1.74,6.15-1.78,6.28h-.35S16.11,11.62,15.65,10a2.51,2.51,0,0,0-2.38-1.78H9V21.76h4.27V13.69h.36l2.49,8.07h3l2.49-8.07h.35v8.07h4.28V8.17Z"/></g><g id="g9"><path id="path11" class="cls-2" d="M37.54,8.17A2.39,2.39,0,0,0,35.7,9.59l-3,6.65h-.35V8.17H28.05V21.76h4A2.47,2.47,0,0,0,34,20.33l3-6.64h.35v8.07h4.27V8.17Z"/></g><g id="g13"><path id="path15" class="cls-2" d="M43.47,14.34v7.42h4.27V17.42h4.63a4.61,4.61,0,0,0,4.36-3.08Z"/></g><g id="g17"><path id="path24" class="cls-3" d="M52.37,8.17h-9.5a6.84,6.84,0,0,0,4.93,5.34h0a7,7,0,0,0,1.78.24h7.33A5,5,0,0,0,57,12.8,4.63,4.63,0,0,0,52.37,8.17Z"/></g></g></g></svg>