<svg xmlns="http://www.w3.org/2000/svg" viewBox="0 0 66 30" width="66" height="30"><defs><style>.cls-1{fill:#0066b2;}.cls-2{fill:#fff;}.cls-2,.cls-3{fill-rule:evenodd;}.cls-3{fill:#f79510;}</style></defs><rect class="cls-1" width="66" height="30" rx="3.06"/><path id="Combined-Shape" class="cls-2" d="M26.13,22,28.47,8h3.75L29.87,22ZM43.46,8.36a9.55,9.55,0,0,0-3.35-.59c-3.71,0-6.31,1.9-6.34,4.62,0,2,1.86,3.14,3.28,3.81s2,1.12,2,1.74c0,.93-1.17,1.36-2.24,1.36a7.78,7.78,0,0,1-3.53-.73l-.48-.22-.53,3.13a11.8,11.8,0,0,0,4.18.75c3.93,0,6.49-1.88,6.52-4.79,0-1.59-1-2.8-3.15-3.8-1.31-.65-2.11-1.08-2.1-1.74s.68-1.2,2.15-1.2a6.68,6.68,0,0,1,2.8.54l.34.16ZM53.07,8H50.18a1.87,1.87,0,0,0-2,1.16L42.65,22h3.94l.78-2.11h4.8c.11.49.46,2.1.46,2.1H56.1Zm-4.62,9,1.49-3.92s.31-.81.5-1.34L50.69,13l.87,4ZM23,8l-3.67,9.55-.39-1.95a10.89,10.89,0,0,0-5.19-5.87L17.09,22h4L27,8Z"/><path id="path30" class="cls-3" d="M15.86,7.77H9.66l-.05.3c4.82,1.22,8,4.14,9.33,7.65L17.6,9a1.62,1.62,0,0,0-1.74-1.23"/></svg>